<?xml version="1.0" encoding="utf-8"?>
<!-- Generator: Adobe Illustrator 25.0.0, SVG Export Plug-In . SVG Version: 6.00 Build 0)  -->
<svg version="1.1" id="Calque_1" xmlns="http://www.w3.org/2000/svg" xmlns:xlink="http://www.w3.org/1999/xlink" x="0px" y="0px"
	 viewBox="0 0 247.6 213.6" style="enable-background:new 0 0 247.6 213.6;" xml:space="preserve">
<style type="text/css">
	.st0{fill:#C1917B;}
	.st1{fill:#C7937B;}
	.st2{fill:#FFFFFF;}
	.st3{fill:#D22728;}
	.st4{fill:#3C3C3D;}
</style>
<g id="Calque_2_1_">
	<g id="logo">
		<g id="dog">
			<g id="ears">
				
					<ellipse id="right-ear" transform="matrix(0.991 -0.1338 0.1338 0.991 -9.1173 31.781)" class="st0" cx="231.9" cy="83.7" rx="12.8" ry="32.3"/>
				
					<ellipse id="left-ear" transform="matrix(0.9977 -6.801530e-02 6.801530e-02 0.9977 -5.3643 1.1955)" class="st0" cx="14.9" cy="79.4" rx="12.3" ry="34"/>
			</g>
			<g id="muzzle">
				<path id="bottom-muzzle-part" class="st1" d="M147.8,183.7l-2.6-1.4l-3.1,4.2c-9.2,12.7-29.4,11-37.2-3c-0.8-1.4-1-1.4-4.2,0.1
					c-2.6,1.2-5.3,2.2-8,3.1l-4.5,1.4l9.3,4.6c5.2,2.6,12.5,5.8,16.4,7.3c5.2,2,7.9,2.6,11,2.3c4.3-0.4,18.2-5.9,28-10.9l6.3-3.2
					l-4.4-1.5C152.4,185.7,150.1,184.8,147.8,183.7z"/>
				<path id="top-muzzle-part" class="st0" d="M123.7,110.5c-36.8,0-68,18.3-79.4,43.9c0.1,0,0.1,0.1,0.1,0c0,0,0,0,0-0.1
					c5.9,6.3,12.3,12.2,19,17.5l7.8,5.9l9.2-0.3c7.8-0.3,9.8-0.7,14.2-2.8c5.9-2.9,12.3-9,15.8-15l2.4-4.3l-2-1.4
					c-4.6-3.5-8.4-8.1-11-13.3c-4.1-9.1-1.2-19.9,6.5-23.8c4.4-2.2,12.2-2.2,15.5,0c2.3,1.5,2.6,1.5,4.8,0.3
					c6.4-3.9,16.2-2.2,20.8,3.6c7.1,8.7,4.4,21.2-6.5,31.1l-4.8,4.4l1.8,3.6c2.6,5.2,9.4,11.8,15.4,14.7c4.4,2.3,6.4,2.8,14,3
					l8.9,0.4l6.4-4.9c7.4-5.6,14.3-11.8,20.7-18.5C191.8,128.9,160.5,110.5,123.7,110.5z M81.7,166.6c-1.6,1.7-2,1.7-4,0.4
					c-2.9-1.7-1.3-6.1,2.1-6.1c1,0.2,1.9,0.8,2.4,1.7C83.3,164.8,83.3,165,81.7,166.6L81.7,166.6z M85.7,154.2
					c-0.7,0.8-1.6,1.2-2.6,1.3c-3.5,0-4.5-4.6-1.5-6.6S87.9,151.4,85.7,154.2L85.7,154.2z M96,161c-1,2-5,2.2-5.7,0.4
					c-0.9-2.4,0.1-4.5,2.3-4.8c1.6-0.4,3.2,0.5,3.7,2.1C96.5,159.5,96.4,160.3,96,161z M153.9,162.4c-2,1.5-2.5,1.4-4.3-0.3
					s-1.4-3.8,0.7-5.1C153.6,155,157.1,160.1,153.9,162.4L153.9,162.4z M160.3,149.6c3.8-2,7,2.4,4,5.5c-0.5,0.6-1.1,1.1-1.9,1.4
					C159.1,156.3,157.5,151.1,160.3,149.6L160.3,149.6z M168.7,166.1c-1.2,1.9-3.9,2.4-5.4,0.9c-3.1-3.2,1.3-7.4,4.6-4.2
					C169.2,164.1,169.4,164.8,168.7,166.1L168.7,166.1z"/>
			</g>
			<path id="extremity" class="st2" d="M246.8,66.9c-6.2-40-37.6-66.7-78.4-66.7c-15.1,0-28.7,4-39.6,11.8l-4.9,3.5l-5.2-3.6
				C101.4,0,80.3-3.1,56.6,3.2C15.3,13.9-7.8,55.7,2.4,101c5.2,22.9,18.8,45.4,38.2,64.6c14.1,13.9,30.3,25.5,47.9,34.4
				c17.1,8.8,32.7,14.4,37.2,13.5c1.2-0.3,6.1-1.9,10.9-3.6c25.8-9.1,50.7-25.1,70.2-44.3c10.4-10.1,19.4-21.7,26.6-34.3
				C244.6,111.3,249.8,86.2,246.8,66.9z M23.8,120.3l-2.2,2.7l-1.7-3.8l-0.3-0.7l-2.1-4.5l0.1-0.2c-1.4-3.4-2.9-7.7-3.8-11
				c-2.3-7.4-2.4-9.1-2.4-23c0-12.6,0.3-16,1.7-20.3l1.6-5.2l6,6.5c1.5,1.6,3,3.4,4.3,5.2c0.6,0.3,2.3,2.9,4.2,6.6
				c1.1,2.1,2,4.2,2.8,6.4c0.1,0.2,0.1,0.4,0.2,0.6c0.1,0.4,0.3,0.8,0.4,1.2c0.2,0.6,0.4,1.2,0.5,1.8c0,0,0,0.1,0,0.2
				c2.3,9.3,0.9,18.5-4.2,29c-0.5,1-1,1.9-1.5,2.9c-0.9,1.8-2,3.5-3.2,5.1C24.1,120,24,120.2,23.8,120.3L23.8,120.3z M152.9,191.3
				c-9.8,5.1-23.8,10.5-28,10.9c-3,0.3-5.7-0.3-11-2.3c-3.8-1.5-11.1-4.7-16.4-7.3l-9.3-4.6l4.5-1.4c2.7-0.9,5.4-1.9,8-3.1
				c3.1-1.5,3.4-1.5,4.2-0.1c7.8,14,27.9,15.7,37.2,3l3.1-4.2l2.6,1.4c2.3,1.1,4.6,2.1,7,2.9l4.4,1.5L152.9,191.3z M110.3,175.1
				c2-1.9,5.8-7.4,9.4-13.4c2.2-3.7,5.2-2.5,8.5,3.3c1.9,3.3,4.2,6.4,6.9,9.2l4.2,4.4l-1.6,2.5c-1.8,3.3-4.9,5.8-8.4,7
				c-3.7,1.3-5.5,1.4-9.4,0.4s-6-2.3-9-5.9C107.6,178.8,107.6,177.8,110.3,175.1L110.3,175.1z M215.6,139.7c-1.3,1.7-2.5,3.4-3.8,5
				c-3.8,4.8-7.3,8.9-8.5,9.8l-0.1,0.1c-6.4,6.7-13.3,12.8-20.7,18.4l-6.4,4.9l-8.9-0.4c-7.7-0.3-9.6-0.7-14-3
				c-6-2.9-12.8-9.5-15.4-14.7l-1.8-3.5l4.9-4.4c11-9.9,13.6-22.4,6.5-31.1c-4.6-5.8-14.5-7.4-20.8-3.6c-2.2,1.2-2.5,1.2-4.8-0.3
				c-3.3-2.2-11.1-2.2-15.5,0c-7.8,3.9-10.6,14.6-6.5,23.8c2.6,5.2,6.4,9.8,11,13.3l2.1,1.4l-2.4,4.3c-3.5,5.9-9.8,12.1-15.8,15
				c-4.4,2.1-6.4,2.6-14.2,2.8l-9.2,0.3l-7.8-5.9c-6.7-5.4-13.1-11.2-19-17.5c0,0,0,0,0,0.1c0,0-0.1,0-0.1,0
				c-1.6-1.5-3.1-3.1-4.5-4.8c-1.3-1.6-3.2-3.9-4.9-6.2c-0.8-1-1.5-2-2.2-2.9l-0.3-0.4c-0.3-0.5-0.7-0.9-1-1.3l-0.8-1.1l-3.3-4.6
				l2.3-2.8c5.2-6.8,9.3-14.3,12.3-22.3c2.1-6.1,2.4-8.4,2.4-16.8S43.9,80.7,42,75.6c-3.4-9.2-7.4-15.4-15.3-23.7l-7.1-7.6l1.5-2.9
				c4.6-8.9,18.5-20.6,30-25.3c12.2-5,31.2-6.6,43.4-3.6c7.7,1.9,17.2,6.7,22.3,11.3c6.4,5.9,7,5.9,13.5,0.5
				c12.3-10,23.9-13.6,42-13c9.9,0.4,12.5,0.8,19.7,3.3c9.2,3.2,13.7,5.6,21.1,11.4c5,3.8,11.7,11.5,14.2,16.3
				c1.2,2.3,1.1,2.5-3.3,6.7c-6.6,6.3-7.4,7.3-12,14.1c-5.6,8.6-7.9,15.7-8.4,26.1c-0.8,13.6,3.3,25.8,12.7,38.4l4.3,5.8
				L215.6,139.7z M233.5,104.1c-0.9,3-2.2,6.7-3.5,10l0,0l-1.7,4.3c-0.5,1.3-1.1,2.5-1.8,3.7c-0.2,0.4-0.4,0.7-0.5,0.7
				s-1.7-1.9-3.2-4.2c-0.3-0.5-0.7-1.1-1-1.6c-0.3-0.5-0.6-1-0.9-1.5l0,0c-6-10.5-8.2-20.6-6.7-30.3c0.8-5,2.6-9.9,5.2-14.2
				c0.6-1.2,1.3-2.3,2.2-3.3c3.8-5.3,10.9-12.9,11.6-12.2c1.2,1.2,3.2,12,3.8,19.5C237.5,84.8,236.3,94.6,233.5,104.1z"/>
			<path id="thongue" class="st3" d="M119.9,188.5c3.9,1,5.8,0.9,9.4-0.4c3.6-1.2,6.6-3.7,8.4-7l1.6-2.5l-4.2-4.4
				c-2.6-2.8-4.9-5.9-6.9-9.2c-3.3-5.8-6.4-7-8.5-3.3c-3.6,6-7.4,11.5-9.4,13.4c-2.8,2.7-2.8,3.7,0.5,7.5
				C113.9,186.2,116,187.5,119.9,188.5z"/>
			<g id="left-dots">
				<path id="dot3-left" class="st4" d="M79.7,160.9c-3.4,0-5,4.4-2.1,6.1c2,1.2,2.4,1.2,4-0.4s1.7-1.8,0.5-4
					C81.7,161.7,80.8,161.1,79.7,160.9z"/>
				<path id="dot2-left" class="st4" d="M81.6,149c-3,2-2,6.6,1.5,6.6c1-0.1,1.9-0.6,2.6-1.3C87.9,151.4,84.5,147.1,81.6,149z"/>
				<path id="dot1-left" class="st4" d="M92.6,156.6c-2.2,0.3-3.1,2.4-2.3,4.8c0.7,1.8,4.6,1.5,5.7-0.4c0.8-1.5,0.3-3.3-1.2-4.1
					C94.2,156.5,93.4,156.4,92.6,156.6z"/>
			</g>
			<g id="right-dots">
				<path id="dot3-right" class="st4" d="M164.4,155c3-3.1-0.2-7.5-4-5.5c-2.9,1.5-1.3,6.7,2.1,6.9
					C163.2,156.1,163.9,155.6,164.4,155z"/>
				<path id="dot2-right" class="st4" d="M163.3,166.9c1.5,1.5,4.2,1,5.4-0.9c0.7-1.2,0.5-1.9-0.8-3.3
					C164.6,159.6,160.2,163.7,163.3,166.9z"/>
				<path id="dot1-right" class="st4" d="M150.4,157c-2.1,1.3-2.4,3.4-0.7,5.1s2.3,1.8,4.3,0.3C157.1,160.1,153.6,155,150.4,157z"/>
			</g>
			<g id="eyes">
				<path id="left-eye" class="st2" d="M96.5,65.5c-3.5-1.5-12-1.6-16.1-0.2C73,67.8,66.8,75.7,65.9,83.7c-0.4,3.6-0.2,4.9,1,6.3
					c2.1,2.4,6.1,2.3,7.8-0.2c0.8-1.3,1.3-2.8,1.4-4.3c0-3.2,3.4-8.1,7-9.9c4-1.8,8.6-1.4,12.2,1.2c2.4,1.8,5.2,7.4,5.2,10.6
					c0,3.9,4.9,5.8,8.3,3.3c2.3-1.7,2-8.2-0.4-13.5C106.2,72.7,100.7,67.3,96.5,65.5z"/>
				<path id="right-eye" class="st2" d="M163,61.6c-11.8-3-25.1,6.7-26.5,19.2c-0.5,3.8-0.3,4.8,1.3,6.4c2.3,2.3,4.8,2.4,7.1,0.1
					c1-1.2,1.6-2.7,1.7-4.3c0-3.5,3.3-8.2,7.2-10.1c6.6-3.4,14.2,0.5,16.3,8.3c1.8,6.8,3.4,8.5,7.1,7.6c3.1-0.8,4.2-3.9,3.2-8.9
					C178.7,70.3,172.8,64.1,163,61.6z"/>
			</g>
		</g>
	</g>
</g>
</svg>
